# xmcd CD database file
# Copyright (C) 1993-1998 Ti Kan
# 
# Track frame offsets:
#     150
#     11240
#     30842
#     48442
#     65089
#     81845
#     96077
#     114972
#     131352
#     147045
#     162105
#     174742
#     185620
#     199550
# 
# Disc length: 2915 seconds
# 
# Revision: 1
# Processed by: cddbd v1.4b41PL1 Copyright (c) Steve Scherf et al.
# Submitted via: DiscPlay 4.0.4
# 
DISCID=b30b610e
DTITLE=V rios - Foga a - Amigos and Can  es
DYEAR=1900
DGENRE=
TTITLE0=Porto Alegre   Demais
TTITLE1=Cora  o Vadio
TTITLE2=Ao Sul Do Teu Amor
TTITLE3=Deixa De Bobagem
TTITLE4=Vento Negro
TTITLE5=Siembra (Semeadura)
TTITLE6=Piquete Do Caveira
TTITLE7=Aprendizes Da Esperan a
TTITLE8=Bonita
TTITLE9=Lagoa Dos Patos
TTITLE10=Estrela Guria
TTITLE11=Mulheres Do Brasil
TTITLE12=Hei De Voltar Pro Sul
TTITLE13=Vira  o
EXTD=
EXTT0=Isabela Foga a\n
EXTT1=Faf  de Bel m\n
EXTT2=Kleiton and Kledir (part. esp. Foga a]\n
EXTT3=Em lio Santiago\n
EXTT4=Alm ndegas\n
EXTT5=Mercedes Sosa\n
EXTT6=Nenhum de N s\n
EXTT7=Faf  de Bel m\n
EXTT8=Victor Hugo\n
EXTT9=Kleiton, Kledir and MPB4\n
EXTT10=Ol via Hime\n
EXTT11=Faf  de Bel m\n
EXTT12=Nara Le o\n
EXTT13=Kleiton and Kledir\n
PLAYORDER=
